# Blender v2.78 (sub 0) OBJ File: ''
# www.blender.org
mtllib curve2.mtl
o Plane.008_Plane.016
v 31.082142 0.250000 -13.197032
v 25.525339 0.250000 -12.186492
v 26.451473 0.250000 -12.604904
v 28.303741 0.250000 -12.830976
v 30.156010 0.250000 -13.648510
v 41.269615 0.250000 -19.934143
v 32.008278 0.250000 -14.488396
v 33.860546 0.250000 -14.075363
v 34.786678 0.250000 -16.211899
v 19.034618 0.250000 -10.913462
v 18.073700 0.250000 -12.914671
v 17.142624 0.250000 -9.017182
v 15.312055 0.250000 -7.512514
v 9.581601 0.250000 -4.929638
v 6.699969 0.250000 -5.223368
v 5.856904 0.250000 -3.071397
v 4.892830 0.250000 -3.883092
v 2.968468 0.250000 -2.487203
v 20.894669 0.250000 -12.488023
v 21.820803 0.250000 -15.989762
v 22.746937 0.250000 -13.752398
v 23.673071 0.250000 -17.732231
v 24.599205 0.250000 -16.572325
v 27.377607 0.250000 -12.027477
v 29.229876 0.250000 -12.107827
v 32.934410 0.250000 -14.028441
v 35.712814 0.250000 -14.571340
v 36.638947 0.250000 -15.354269
v 37.565079 0.250000 -14.806051
v 38.491215 0.250000 -15.226714
v 39.417351 0.250000 -16.982704
v 40.343483 0.250000 -19.713961
v 19.950302 0.250000 -13.868043
v 16.164654 0.250000 -8.261108
v 14.373841 0.250000 -8.706450
v 13.425206 0.250000 -7.043269
v 12.426602 0.250000 -6.192472
v 11.520715 0.250000 -6.620578
v 10.532651 0.250000 -5.404901
v 0.050835 0.250000 0.228516
v 8.699401 0.250000 -5.831579
v 7.741597 0.250000 -4.627708
v 4.000301 0.250000 -2.267975
v 2.008530 0.250000 0.179628
v 1.105682 0.250000 -0.182138
v 28.313774 0.250000 -12.442516
v 30.271553 0.250000 -13.258432
v 32.103352 0.250000 -14.106211
v 34.061722 0.250000 -13.785169
v 35.629734 0.250000 -14.108264
v 36.669708 0.250000 -14.987440
v 37.546806 0.250000 -14.468251
v 38.708702 0.250000 -14.996006
v 39.693817 0.250000 -16.863819
v 20.053143 0.250000 -13.186514
v 19.094950 0.250000 -10.094731
v 17.409832 0.250000 -8.844565
v 16.355553 0.250000 -8.029493
v 15.271921 0.250000 -7.078049
v 14.413486 0.250000 -8.170453
v 13.659762 0.250000 -6.848989
v 9.520065 0.250000 -4.563514
v 8.722560 0.250000 -5.378850
v 6.852584 0.250000 -4.790501
v 5.983645 0.250000 -2.572504
v 4.978846 0.250000 -3.418496
v 4.155363 0.250000 -1.928328
v 3.162102 0.250000 -2.139363
v 2.185509 0.250000 0.573734
v 1.104097 0.250000 0.140412
v 21.017134 0.250000 -11.777818
v 31.178333 0.250000 -12.816393
v 21.883560 0.250000 -15.053760
v 22.827263 0.250000 -12.773961
v 23.824938 0.250000 -17.061228
v 24.320377 0.250000 -16.440731
v 25.308893 0.250000 -11.759504
v 26.428841 0.250000 -12.265483
v 27.406868 0.250000 -11.655699
v 29.312370 0.250000 -11.662782
v 41.338997 0.250000 -19.642277
v 32.871239 0.250000 -13.724855
v 34.821983 0.250000 -15.539076
v 40.574306 0.250000 -19.460476
v 18.169088 0.250000 -12.022902
v 12.473636 0.250000 -5.838428
v 11.605178 0.250000 -6.248849
v 10.724642 0.250000 -5.165470
v 0.159670 0.250000 0.508078
v 7.816103 0.250000 -4.239508
v 30.619076 0.250000 -13.422771
v 25.988405 0.250000 -12.395699
v 34.323612 0.250000 -15.143631
v 18.554161 0.250000 -11.914066
v 17.608162 0.250000 -10.965927
v 6.278437 0.250000 -4.147382
v 5.374866 0.250000 -3.477244
v 31.545210 0.250000 -13.842714
v 21.357735 0.250000 -14.238893
v 22.283869 0.250000 -14.871079
v 23.210003 0.250000 -15.742314
v 24.136137 0.250000 -17.152279
v 36.175880 0.250000 -14.962805
v 37.102013 0.250000 -15.080160
v 38.028149 0.250000 -15.016382
v 38.954281 0.250000 -16.104710
v 39.880417 0.250000 -18.348331
v 13.899524 0.250000 -7.874859
v 12.925904 0.250000 -6.617870
v 11.973659 0.250000 -6.406525
v 0.578259 0.250000 0.023189
v 8.220499 0.250000 -5.229644
v 1.557106 0.250000 -0.001255
v 11.026683 0.250000 -6.012739
v 20.422485 0.250000 -13.178033
v 36.149719 0.250000 -14.547852
v 37.108257 0.250000 -14.727846
v 38.127754 0.250000 -14.732128
v 39.201260 0.250000 -15.929913
v 19.574047 0.250000 -11.640623
v 16.882692 0.250000 -8.437030
v 15.813737 0.250000 -7.553771
v 14.842704 0.250000 -7.624250
v 14.036625 0.250000 -7.509721
v 9.121313 0.250000 -4.971182
v 6.418115 0.250000 -3.681502
v 5.481245 0.250000 -2.995500
v 4.567104 0.250000 -2.673412
v 3.658733 0.250000 -2.033845
v 2.673805 0.250000 -0.782815
v 1.644802 0.250000 0.357073
v 21.450348 0.250000 -13.415789
v 22.355412 0.250000 -13.913860
v 23.326099 0.250000 -14.917595
v 24.072659 0.250000 -16.750980
v 24.814636 0.250000 -14.100118
v 25.868866 0.250000 -12.012493
v 26.917854 0.250000 -11.960590
v 40.956654 0.250000 -19.551376
v 12.039407 0.250000 -6.043639
v 11.164909 0.250000 -5.707160
v 25.062271 0.250000 -14.379408
v 26.914539 0.250000 -12.316191
v 27.840673 0.250000 -12.429227
v 28.766808 0.250000 -12.469401
v 29.692942 0.250000 -12.878168
v 40.806549 0.250000 -19.824053
v 32.471344 0.250000 -14.258419
v 33.397476 0.250000 -14.051902
v 35.249744 0.250000 -15.391619
v 19.492462 0.250000 -12.390753
v 16.653641 0.250000 -8.639146
v 15.738355 0.250000 -7.886811
v 14.842948 0.250000 -8.109482
v 10.057126 0.250000 -5.167269
v 9.140501 0.250000 -5.380609
v 7.220783 0.250000 -4.925538
v 4.446566 0.250000 -3.075533
v 3.484385 0.250000 -2.377589
v 2.488499 0.250000 -1.153787
v 30.724943 0.250000 -13.037413
v 27.860321 0.250000 -12.049108
v 28.813072 0.250000 -12.052649
v 29.791962 0.250000 -12.460608
v 32.487297 0.250000 -13.915533
v 33.466484 0.250000 -13.755012
v 34.441856 0.250000 -14.662123
v 35.225861 0.250000 -14.823669
v 40.134060 0.250000 -18.162148
v 18.632019 0.250000 -11.058817
v 17.789459 0.250000 -10.433734
v 13.066699 0.250000 -6.343709
v 0.631884 0.250000 0.324245
v 10.122354 0.250000 -4.864491
v 8.269331 0.250000 -4.809178
v 7.334343 0.250000 -4.515004
v 31.640842 0.250000 -13.461302
v 20.535139 0.250000 -12.482166
vt 0.7496 -0.1390
vt 0.7583 1.1673
vt 0.7470 1.1673
vt 0.6061 -0.1390
vt 0.6234 1.1673
vt 0.6121 1.1673
vt 0.6346 1.1673
vt 0.6453 -0.1390
vt 0.6458 1.1673
vt 0.6572 -0.1390
vt 0.6683 1.1673
vt 0.6571 1.1673
vt 0.6796 1.1673
vt 0.6911 -0.1390
vt 0.6908 1.1673
vt 0.7032 -0.1390
vt 0.7133 1.1673
vt 0.7021 1.1673
vt 0.7246 1.1673
vt 0.7386 -0.1390
vt 0.7358 1.1673
vt 0.9980 -0.1390
vt 1.0056 1.1673
vt 0.9944 1.1673
vt 0.7924 -0.1390
vt 0.8033 1.1673
vt 0.7920 1.1673
vt 0.8162 -0.1390
vt 0.8257 1.1673
vt 0.8145 1.1673
vt 0.8370 1.1673
vt 0.8491 -0.1390
vt 0.8482 1.1673
vt 0.8589 -0.1390
vt 0.8707 1.1673
vt 0.8595 1.1673
vt 0.8820 1.1673
vt 0.8940 -0.1390
vt 0.8932 1.1673
vt 0.9046 -0.1390
vt 0.9157 1.1673
vt 0.9045 1.1673
vt 0.9294 -0.1390
vt 0.9382 1.1673
vt 0.9269 1.1673
vt 0.9494 1.1673
vt 0.9674 -0.1390
vt 0.9607 1.1673
vt 0.9719 1.1673
vt 0.9888 -0.1390
vt 0.9832 1.1673
vt 0.4769 1.1673
vt 0.4905 -0.1390
vt 0.4880 1.1673
vt 0.4560 -0.1390
vt 0.4658 1.1673
vt 0.4541 1.1673
vt 0.4311 1.1673
vt 0.4447 -0.1390
vt 0.4424 1.1673
vt 0.4135 -0.1390
vt 0.4198 1.1673
vt 0.4079 1.1673
vt 0.3857 1.1673
vt 0.4007 -0.1390
vt 0.3961 1.1673
vt 0.3640 -0.1390
vt 0.3754 1.1673
vt 0.3640 1.1673
vt 0.3411 1.1673
vt 0.3535 -0.1390
vt 0.3526 1.1673
vt 0.3174 1.1673
vt 0.3352 -0.1390
vt 0.3296 1.1673
vt 0.0176 1.1673
vt 0.0304 -0.1390
vt 0.0304 1.1673
vt 0.2478 1.1673
vt 0.2640 -0.1390
vt 0.2593 1.1673
vt 0.2250 -0.1390
vt 0.2362 1.1673
vt 0.2255 1.1673
vt 0.2032 1.1673
vt 0.2154 -0.1390
vt 0.2148 1.1673
vt 0.1817 -0.1390
vt 0.1915 1.1673
vt 0.1789 1.1673
vt 0.1560 1.1673
vt 0.1700 -0.1390
vt 0.1663 1.1673
vt 0.1367 -0.1390
vt 0.1458 1.1673
vt 0.1341 1.1673
vt 0.1115 1.1673
vt 0.1245 -0.1390
vt 0.1224 1.1673
vt 0.0924 -0.1390
vt 0.1007 1.1673
vt 0.0882 1.1673
vt 0.0640 1.1673
vt 0.0804 -0.1390
vt 0.0756 1.1673
vt 0.0435 -0.1390
vt 0.0523 1.1673
vt 0.0414 1.1673
vt 0.7695 1.1673
vt 0.7831 -0.1390
vt 0.7808 1.1673
vt 0.5022 -0.1390
vt 0.5109 1.1673
vt 0.4995 1.1673
vt 0.5244 -0.1390
vt 0.5222 1.1673
vt 0.5447 1.1673
vt 0.5349 -0.1390
vt 0.5464 -0.1390
vt 0.5559 1.1673
vt 0.5700 -0.1390
vt 0.5671 1.1673
vt 0.5896 1.1673
vt 0.5821 -0.1390
vt 0.5881 -0.1390
vt 0.2943 1.1673
vt 0.2854 -0.1390
vt 0.2959 -0.1390
vt 0.2747 -0.1390
vt 0.2713 1.1673
vt 0.2833 1.1673
vt 0.3053 1.1673
vt 0.3064 -0.1390
vt 0.6009 1.1673
vt 0.5941 -0.1390
vt 0.5784 1.1673
vt 0.5578 -0.1390
vt 0.5334 1.1673
vt 0.7718 -0.1390
vt 0.0685 -0.1390
vt 0.1145 -0.1390
vt 0.1594 -0.1390
vt 0.2044 -0.1390
vt 0.2494 -0.1390
vt 0.0048 1.1673
vt 0.0189 -0.1390
vt 0.3208 -0.1390
vt 0.3444 -0.1390
vt 0.3875 -0.1390
vt 0.4355 -0.1390
vt 0.4789 -0.1390
vt 0.9781 -0.1390
vt 0.9554 -0.1390
vt 0.8813 -0.1390
vt 0.8399 -0.1390
vt 0.7270 -0.1390
vt 0.6801 -0.1390
vt 0.6317 -0.1390
vt 0.7606 -0.1390
vt 0.6181 -0.1390
vt 0.6690 -0.1390
vt 0.7153 -0.1390
vt 1.0073 -0.1390
vt 0.8017 -0.1390
vt 0.8306 -0.1390
vt 0.8687 -0.1390
vt 0.9153 -0.1390
vt 0.9435 -0.1390
vt 0.4672 -0.1390
vt 0.4263 -0.1390
vt 0.3744 -0.1390
vt 0.2347 -0.1390
vt 0.1934 -0.1390
vt 0.1489 -0.1390
vt 0.1045 -0.1390
vt 0.0566 -0.1390
vt 0.5139 -0.1390
vt 0.0074 -0.1390
vn 0.0000 1.0000 0.0000
usemtl None
s off
f 161/1/1 1/2/1 91/3/1
f 136/4/1 2/5/1 142/6/1
f 92/7/1 78/8/1 3/9/1
f 138/10/1 24/11/1 143/12/1
f 144/13/1 46/14/1 4/15/1
f 163/16/1 25/17/1 145/18/1
f 146/19/1 47/20/1 5/21/1
f 139/22/1 6/23/1 147/24/1
f 165/25/1 26/26/1 148/27/1
f 166/28/1 8/29/1 149/30/1
f 93/31/1 83/32/1 9/33/1
f 168/34/1 27/35/1 150/36/1
f 103/37/1 51/38/1 28/39/1
f 117/40/1 29/41/1 104/42/1
f 118/43/1 30/44/1 105/45/1
f 106/46/1 54/47/1 31/48/1
f 107/49/1 84/50/1 32/51/1
f 151/52/1 55/53/1 33/54/1
f 170/55/1 10/56/1 94/57/1
f 95/58/1 85/59/1 11/60/1
f 121/61/1 12/62/1 152/63/1
f 153/64/1 58/65/1 34/66/1
f 123/67/1 13/68/1 154/69/1
f 108/70/1 60/71/1 35/72/1
f 109/73/1 61/74/1 36/75/1
f 111/76/1 70/77/1 45/78/1
f 155/79/1 88/80/1 39/81/1
f 125/82/1 14/83/1 156/84/1
f 112/85/1 63/86/1 41/87/1
f 176/88/1 42/89/1 157/90/1
f 96/91/1 64/92/1 15/93/1
f 127/94/1 16/95/1 97/96/1
f 158/97/1 66/98/1 17/99/1
f 129/100/1 43/101/1 159/102/1
f 160/103/1 68/104/1 18/105/1
f 131/106/1 44/107/1 113/108/1
f 98/109/1 48/110/1 7/111/1
f 178/112/1 19/113/1 115/114/1
f 19/113/1 132/115/1 99/116/1
f 100/117/1 73/118/1 133/119/1
f 21/120/1 134/121/1 101/122/1
f 102/123/1 75/124/1 135/125/1
f 110/126/1 87/127/1 140/128/1
f 39/81/1 141/129/1 114/130/1
f 114/130/1 87/127/1 38/131/1
f 37/132/1 140/128/1 86/133/1
f 23/134/1 135/125/1 76/135/1
f 101/122/1 75/124/1 22/136/1
f 21/120/1 133/119/1 74/137/1
f 99/116/1 73/118/1 20/138/1
f 55/53/1 115/114/1 33/54/1
f 1/2/1 177/139/1 98/109/1
f 70/77/1 113/108/1 45/78/1
f 44/107/1 130/140/1 160/103/1
f 68/104/1 159/102/1 18/105/1
f 43/101/1 128/141/1 158/97/1
f 66/98/1 97/96/1 17/99/1
f 16/95/1 126/142/1 96/91/1
f 64/92/1 157/90/1 15/93/1
f 42/89/1 175/143/1 112/85/1
f 63/86/1 156/84/1 41/87/1
f 14/83/1 174/144/1 155/79/1
f 40/145/1 173/146/1 111/76/1
f 37/132/1 172/147/1 109/73/1
f 36/75/1 124/148/1 108/70/1
f 60/71/1 154/69/1 35/72/1
f 13/68/1 122/149/1 153/64/1
f 58/65/1 152/63/1 34/66/1
f 12/62/1 171/150/1 95/58/1
f 85/59/1 94/57/1 11/60/1
f 10/56/1 120/151/1 151/52/1
f 31/48/1 169/152/1 107/49/1
f 30/44/1 119/153/1 106/46/1
f 29/41/1 118/43/1 105/45/1
f 51/38/1 104/42/1 28/39/1
f 27/35/1 116/154/1 103/37/1
f 83/32/1 150/36/1 9/33/1
f 8/29/1 167/155/1 93/31/1
f 26/26/1 166/28/1 149/30/1
f 48/110/1 148/27/1 7/111/1
f 84/50/1 147/24/1 32/51/1
f 25/17/1 164/156/1 146/19/1
f 46/14/1 145/18/1 4/15/1
f 24/11/1 162/157/1 144/13/1
f 78/8/1 143/12/1 3/9/1
f 2/5/1 137/158/1 92/7/1
f 76/135/1 142/6/1 23/134/1
f 47/20/1 91/3/1 5/21/1
f 161/1/1 72/159/1 1/2/1
f 136/4/1 77/160/1 2/5/1
f 92/7/1 137/158/1 78/8/1
f 138/10/1 79/161/1 24/11/1
f 144/13/1 162/157/1 46/14/1
f 163/16/1 80/162/1 25/17/1
f 146/19/1 164/156/1 47/20/1
f 139/22/1 81/163/1 6/23/1
f 165/25/1 82/164/1 26/26/1
f 166/28/1 49/165/1 8/29/1
f 93/31/1 167/155/1 83/32/1
f 168/34/1 50/166/1 27/35/1
f 103/37/1 116/154/1 51/38/1
f 117/40/1 52/167/1 29/41/1
f 118/43/1 53/168/1 30/44/1
f 106/46/1 119/153/1 54/47/1
f 107/49/1 169/152/1 84/50/1
f 151/52/1 120/151/1 55/53/1
f 170/55/1 56/169/1 10/56/1
f 95/58/1 171/150/1 85/59/1
f 121/61/1 57/170/1 12/62/1
f 153/64/1 122/149/1 58/65/1
f 123/67/1 59/171/1 13/68/1
f 108/70/1 124/148/1 60/71/1
f 109/73/1 172/147/1 61/74/1
f 111/76/1 173/146/1 70/77/1
f 155/79/1 174/144/1 88/80/1
f 125/82/1 62/172/1 14/83/1
f 112/85/1 175/143/1 63/86/1
f 176/88/1 90/173/1 42/89/1
f 96/91/1 126/142/1 64/92/1
f 127/94/1 65/174/1 16/95/1
f 158/97/1 128/141/1 66/98/1
f 129/100/1 67/175/1 43/101/1
f 160/103/1 130/140/1 68/104/1
f 131/106/1 69/176/1 44/107/1
f 98/109/1 177/139/1 48/110/1
f 178/112/1 71/177/1 19/113/1
f 19/113/1 71/177/1 132/115/1
f 100/117/1 20/138/1 73/118/1
f 21/120/1 74/137/1 134/121/1
f 102/123/1 22/136/1 75/124/1
f 110/126/1 38/131/1 87/127/1
f 39/81/1 88/80/1 141/129/1
f 114/130/1 141/129/1 87/127/1
f 37/132/1 110/126/1 140/128/1
f 23/134/1 102/123/1 135/125/1
f 101/122/1 134/121/1 75/124/1
f 21/120/1 100/117/1 133/119/1
f 99/116/1 132/115/1 73/118/1
f 55/53/1 178/112/1 115/114/1
f 1/2/1 72/159/1 177/139/1
f 70/77/1 131/106/1 113/108/1
f 44/107/1 69/176/1 130/140/1
f 68/104/1 129/100/1 159/102/1
f 43/101/1 67/175/1 128/141/1
f 66/98/1 127/94/1 97/96/1
f 16/95/1 65/174/1 126/142/1
f 64/92/1 176/88/1 157/90/1
f 42/89/1 90/173/1 175/143/1
f 63/86/1 125/82/1 156/84/1
f 14/83/1 62/172/1 174/144/1
f 40/145/1 89/178/1 173/146/1
f 37/132/1 86/133/1 172/147/1
f 36/75/1 61/74/1 124/148/1
f 60/71/1 123/67/1 154/69/1
f 13/68/1 59/171/1 122/149/1
f 58/65/1 121/61/1 152/63/1
f 12/62/1 57/170/1 171/150/1
f 85/59/1 170/55/1 94/57/1
f 10/56/1 56/169/1 120/151/1
f 31/48/1 54/47/1 169/152/1
f 30/44/1 53/168/1 119/153/1
f 29/41/1 52/167/1 118/43/1
f 51/38/1 117/40/1 104/42/1
f 27/35/1 50/166/1 116/154/1
f 83/32/1 168/34/1 150/36/1
f 8/29/1 49/165/1 167/155/1
f 26/26/1 82/164/1 166/28/1
f 48/110/1 165/25/1 148/27/1
f 84/50/1 139/22/1 147/24/1
f 25/17/1 80/162/1 164/156/1
f 46/14/1 163/16/1 145/18/1
f 24/11/1 79/161/1 162/157/1
f 78/8/1 138/10/1 143/12/1
f 2/5/1 77/160/1 137/158/1
f 76/135/1 136/4/1 142/6/1
f 47/20/1 161/1/1 91/3/1
