# Blender v2.78 (sub 0) OBJ File: ''
# www.blender.org
mtllib gear.mtl
o Circle
v 0.000000 0.200000 -1.000000
v -0.500000 0.200000 -0.866025
v -0.866025 0.200000 -0.500000
v -1.000000 0.200000 0.000000
v -0.866025 0.200000 0.500000
v -0.500000 0.200000 0.866025
v -0.000000 0.200000 1.000000
v 0.500000 0.200000 0.866026
v 0.866025 0.200000 0.500000
v 1.000000 0.200000 0.000000
v 0.866026 0.200000 -0.499999
v 0.500001 0.200000 -0.866025
v 0.113215 0.200000 -1.301608
v -0.748851 0.200000 -1.070618
v -1.070618 0.200000 -0.748851
v -1.301608 0.200000 0.113215
v -1.183833 0.200000 0.552757
v -0.552757 0.200000 1.183833
v -0.113215 0.200000 1.301608
v 0.748851 0.200000 1.070618
v 1.070618 0.200000 0.748852
v 1.301608 0.200000 -0.113215
v 1.183833 0.200000 -0.552756
v 0.552757 0.200000 -1.183833
v 0.000000 0.200000 -0.649604
v -0.324802 0.200000 -0.562573
v -0.562573 0.200000 -0.324802
v -0.649604 0.200000 0.000000
v -0.562573 0.200000 0.324802
v -0.324802 0.200000 0.562574
v -0.000000 0.200000 0.649604
v 0.324802 0.200000 0.562574
v 0.562573 0.200000 0.324802
v 0.649604 0.200000 0.000000
v 0.562574 0.200000 -0.324802
v 0.324802 0.200000 -0.562573
v -0.000000 -0.200000 1.000000
v -0.500000 -0.200000 0.866025
v -0.866025 -0.200000 0.500000
v -1.000000 -0.200000 0.000000
v -0.866025 -0.200000 -0.500000
v -0.500000 -0.200000 -0.866025
v 0.000000 0.200000 0.000000
v 0.000000 -0.200000 -1.000000
v 0.500000 -0.200000 0.866026
v 0.866025 -0.200000 0.500000
v 1.000000 -0.200000 0.000000
v 0.866026 -0.200000 -0.499999
v 0.500001 -0.200000 -0.866025
v 0.113215 -0.200000 -1.301608
v -0.748851 -0.200000 -1.070618
v -1.070618 -0.200000 -0.748851
v -1.301608 -0.200000 0.113215
v -1.183833 -0.200000 0.552757
v -0.552757 -0.200000 1.183833
v -0.113215 -0.200000 1.301608
v 0.748851 -0.200000 1.070618
v 1.070618 -0.200000 0.748852
v 1.301608 -0.200000 -0.113215
v 1.183833 -0.200000 -0.552756
v 0.552757 -0.200000 -1.183833
v 0.000000 -0.200000 -0.649604
v -0.324802 -0.200000 -0.562573
v -0.562573 -0.200000 -0.324802
v -0.649604 -0.200000 0.000000
v -0.562573 -0.200000 0.324802
v -0.324802 -0.200000 0.562574
v -0.000000 -0.200000 0.649604
v 0.324802 -0.200000 0.562574
v 0.562573 -0.200000 0.324802
v 0.649604 -0.200000 0.000000
v 0.562574 -0.200000 -0.324802
v 0.324802 -0.200000 -0.562573
v 0.000000 -0.200000 0.000000
vt 0.4812 0.3543
vt 0.4318 0.3181
vt 0.3831 0.4047
vt 0.4383 0.1056
vt 0.3831 0.1313
vt 0.4318 0.2180
vt 0.2072 0.0193
vt 0.2013 0.0813
vt 0.2987 0.0813
vt 0.0682 0.2180
vt 0.1169 0.1313
vt 0.0617 0.1056
vt 0.0617 0.4305
vt 0.1169 0.4047
vt 0.0682 0.3181
vt 0.2987 0.4548
vt 0.2013 0.4548
vt 0.2072 0.5167
vt 0.3365 0.3568
vt 0.2183 0.3893
vt 0.1635 0.3568
vt 0.3681 0.2355
vt 0.1635 0.1792
vt 0.2817 0.3893
vt 0.1319 0.3005
vt 0.3681 0.3005
vt 0.2817 0.1467
vt 0.7987 0.4548
vt 0.8831 0.4047
vt 0.8365 0.3568
vt 0.7013 0.4548
vt 0.7072 0.5167
vt 0.7928 0.5167
vt 0.6169 0.4047
vt 0.5682 0.3181
vt 0.5188 0.3543
vt 0.9318 0.3181
vt 0.9383 0.4305
vt 0.7183 0.3893
vt 0.5682 0.2180
vt 0.6169 0.1313
vt 0.5617 0.1056
vt 0.9318 0.2180
vt 0.9812 0.1818
vt 0.9383 0.1056
vt 0.7013 0.0813
vt 0.7987 0.0813
vt 0.7928 0.0193
vt 0.6319 0.2355
vt 0.8365 0.1792
vt 0.8831 0.1313
vt 0.7817 0.3893
vt 0.8681 0.3005
vt 0.6319 0.3005
vt 0.7183 0.1467
vt 0.7817 0.1467
vt 0.6635 0.3568
vt 0.6635 0.1792
vt 0.2071 0.6767
vt 0.2071 0.6117
vt 0.1318 0.6117
vt 0.1329 0.8490
vt 0.2071 0.8490
vt 0.2071 0.7716
vt 0.4706 0.7374
vt 0.4706 0.8241
vt 0.5460 0.8241
vt 0.2071 0.7330
vt 0.1318 0.6767
vt 0.8095 0.8647
vt 0.8699 0.8647
vt 0.8699 0.7874
vt 0.0188 0.6767
vt 0.0188 0.7330
vt 0.0941 0.7330
vt 0.7569 0.8761
vt 0.6966 0.8761
vt 0.6966 0.9535
vt 0.6589 0.8375
vt 0.6589 0.7374
vt 0.5836 0.7374
vt 0.0188 0.6117
vt 0.0941 0.6767
vt 0.3577 0.9649
vt 0.4070 0.9649
vt 0.4070 0.8876
vt 0.0188 0.5554
vt 0.0941 0.6117
vt 0.6966 0.5554
vt 0.6966 0.6121
vt 0.7719 0.6121
vt 0.6966 0.6988
vt 0.7719 0.6988
vt 0.4330 0.6117
vt 0.4330 0.5554
vt 0.3577 0.5554
vt 0.4706 0.8808
vt 0.5460 0.8808
vt 0.4330 0.6767
vt 0.3577 0.6117
vt 0.0682 0.8983
vt 0.0188 0.8983
vt 0.0188 0.9756
vt 0.4706 0.5554
vt 0.4706 0.6421
vt 0.5460 0.6421
vt 0.4330 0.7330
vt 0.3577 0.6767
vt 0.1933 0.8876
vt 0.1329 0.8876
vt 0.1329 0.9649
vt 0.2447 0.6767
vt 0.2447 0.7330
vt 0.3200 0.7330
vt 0.6440 0.8761
vt 0.5836 0.8761
vt 0.5836 0.9535
vt 0.8837 0.6714
vt 0.8095 0.6714
vt 0.8095 0.7487
vt 0.2447 0.6117
vt 0.3200 0.6767
vt 0.2941 0.8983
vt 0.2447 0.8983
vt 0.2447 0.9756
vt 0.0188 0.7716
vt 0.0188 0.8596
vt 0.0941 0.8596
vt 0.2447 0.5554
vt 0.3200 0.6117
vt 0.6966 0.7374
vt 0.6966 0.8375
vt 0.7719 0.8375
vt 0.6589 0.6988
vt 0.6589 0.6421
vt 0.5836 0.6421
vt 0.3577 0.8490
vt 0.4319 0.8490
vt 0.4319 0.7716
vt 0.2071 0.5554
vt 0.1318 0.5554
vt 0.4706 0.6988
vt 0.5460 0.6988
vt 0.8837 0.5554
vt 0.8095 0.5554
vt 0.8095 0.6327
vt 0.6589 0.5554
vt 0.5836 0.5554
vt 0.8588 0.9033
vt 0.8095 0.9033
vt 0.8095 0.9807
vt 0.2447 0.7716
vt 0.2447 0.8596
vt 0.3200 0.8596
vt 0.4383 0.4305
vt 0.4812 0.1818
vt 0.2928 0.0193
vt 0.0188 0.1818
vt 0.0188 0.3543
vt 0.2928 0.5167
vt 0.3365 0.1792
vt 0.2183 0.1467
vt 0.1319 0.2355
vt 0.5617 0.4305
vt 0.9812 0.3543
vt 0.5188 0.1818
vt 0.7072 0.0193
vt 0.8681 0.2355
vt 0.1329 0.7716
vt 0.5460 0.7374
vt 0.1318 0.7330
vt 0.8095 0.7874
vt 0.7569 0.9535
vt 0.5836 0.8375
vt 0.3577 0.8876
vt 0.0941 0.5554
vt 0.7719 0.5554
vt 0.0682 0.9756
vt 0.5460 0.5554
vt 0.3577 0.7330
vt 0.1933 0.9649
vt 0.6440 0.9535
vt 0.8837 0.7487
vt 0.2941 0.9756
vt 0.0941 0.7716
vt 0.3200 0.5554
vt 0.7719 0.7374
vt 0.5836 0.6988
vt 0.3577 0.7716
vt 0.8837 0.6327
vt 0.8588 0.9807
vt 0.3200 0.7716
vn 0.0000 -1.0000 0.0000
vn 0.0000 1.0000 0.0000
vn -0.2588 0.0000 -0.9659
vn -0.2588 0.0000 0.9659
vn 0.7071 0.0000 -0.7071
vn -0.7071 0.0000 -0.7071
vn -0.3514 0.0000 -0.9362
vn -0.9659 0.0000 -0.2588
vn 0.1638 0.0000 0.9865
vn -0.9659 0.0000 0.2588
vn 0.6351 0.0000 -0.7725
vn -0.7071 0.0000 0.7071
vn -0.7725 0.0000 0.6351
vn 0.9865 0.0000 0.1638
vn 0.2588 0.0000 0.9659
vn -0.9362 0.0000 -0.3514
vn 0.7071 0.0000 0.7071
vn 0.3514 0.0000 0.9362
vn 0.9659 0.0000 0.2588
vn -0.1638 0.0000 -0.9865
vn 0.9659 0.0000 -0.2588
vn -0.6351 0.0000 0.7725
vn 0.7725 0.0000 -0.6351
vn 0.2588 0.0000 -0.9659
vn -0.9865 0.0000 -0.1638
vn 0.9362 0.0000 0.3514
usemtl None
s off
f 22/1/1 10/2/1 11/3/1
f 20/4/1 8/5/1 9/6/1
f 18/7/1 6/8/1 7/9/1
f 4/10/1 5/11/1 17/12/1
f 14/13/1 2/14/1 3/15/1
f 12/16/1 1/17/1 13/18/1
f 12/16/1 11/3/1 35/19/1
f 1/17/1 25/20/1 26/21/1
f 33/22/1 9/6/1 8/5/1
f 6/8/1 5/11/1 29/23/1
f 1/17/1 12/16/1 36/24/1
f 27/25/1 3/15/1 2/14/1
f 9/6/1 33/22/1 34/26/1
f 31/27/1 7/9/1 6/8/1
f 4/10/1 3/15/1 27/25/1
f 11/3/1 10/2/1 34/26/1
f 8/5/1 7/9/1 31/27/1
f 29/23/1 5/11/1 4/10/1
f 44/28/2 42/29/2 63/30/2
f 49/31/2 61/32/2 50/33/2
f 48/34/2 47/35/2 59/36/2
f 41/37/2 42/29/2 51/38/2
f 48/34/2 49/31/2 73/39/2
f 46/40/2 45/41/2 57/42/2
f 40/43/2 53/44/2 54/45/2
f 37/46/2 38/47/2 55/48/2
f 45/41/2 46/40/2 70/49/2
f 66/50/2 39/51/2 38/47/2
f 49/31/2 44/28/2 62/52/2
f 42/29/2 41/37/2 64/53/2
f 46/40/2 47/35/2 71/54/2
f 37/46/2 68/55/2 67/56/2
f 64/53/2 41/37/2 40/43/2
f 48/34/2 72/57/2 71/54/2
f 37/46/2 45/41/2 69/58/2
f 40/43/2 39/51/2 66/50/2
f 26/59/3 25/60/3 62/61/3
f 24/62/4 13/63/4 50/64/4
f 5/65/5 6/66/5 38/67/5
f 27/68/6 26/59/6 63/69/6
f 10/70/7 22/71/7 59/72/7
f 28/73/8 27/74/8 64/75/8
f 23/76/9 11/77/9 48/78/9
f 7/79/3 8/80/3 45/81/3
f 29/82/10 28/73/10 65/83/10
f 8/84/11 20/85/11 57/86/11
f 30/87/12 29/82/12 66/88/12
f 21/89/13 9/90/13 46/91/13
f 9/90/8 10/92/8 47/93/8
f 31/94/4 30/95/4 67/96/4
f 6/66/14 18/97/14 55/98/14
f 32/99/15 31/94/15 68/100/15
f 19/101/16 7/102/16 37/103/16
f 11/104/12 12/105/12 49/106/12
f 33/107/17 32/99/17 69/108/17
f 4/109/18 16/110/18 53/111/18
f 34/112/19 33/113/19 70/114/19
f 17/115/20 5/116/20 39/117/20
f 14/118/17 15/119/17 52/120/17
f 35/121/21 34/112/21 71/122/21
f 2/123/22 14/124/22 51/125/22
f 16/126/21 17/127/21 54/128/21
f 36/129/5 35/121/5 72/130/5
f 1/131/15 2/132/15 42/133/15
f 15/134/23 3/135/23 41/136/23
f 18/137/24 19/138/24 56/139/24
f 25/60/24 36/140/24 73/141/24
f 12/105/25 24/142/25 61/143/25
f 20/144/6 21/145/6 58/146/6
f 3/135/19 4/147/19 40/148/19
f 13/149/26 1/150/26 44/151/26
f 22/152/10 23/153/10 60/154/10
f 22/1/1 11/3/1 23/155/1
f 20/4/1 9/6/1 21/156/1
f 18/7/1 7/9/1 19/157/1
f 4/10/1 17/12/1 16/158/1
f 14/13/1 3/15/1 15/159/1
f 12/16/1 13/18/1 24/160/1
f 12/16/1 35/19/1 36/24/1
f 1/17/1 26/21/1 2/14/1
f 33/22/1 8/5/1 32/161/1
f 6/8/1 29/23/1 30/162/1
f 1/17/1 36/24/1 25/20/1
f 27/25/1 2/14/1 26/21/1
f 9/6/1 34/26/1 10/2/1
f 31/27/1 6/8/1 30/162/1
f 4/10/1 27/25/1 28/163/1
f 11/3/1 34/26/1 35/19/1
f 8/5/1 31/27/1 32/161/1
f 29/23/1 4/10/1 28/163/1
f 44/28/2 63/30/2 62/52/2
f 49/31/2 50/33/2 44/28/2
f 48/34/2 59/36/2 60/164/2
f 41/37/2 51/38/2 52/165/2
f 48/34/2 73/39/2 72/57/2
f 46/40/2 57/42/2 58/166/2
f 40/43/2 54/45/2 39/51/2
f 37/46/2 55/48/2 56/167/2
f 45/41/2 70/49/2 69/58/2
f 66/50/2 38/47/2 67/56/2
f 49/31/2 62/52/2 73/39/2
f 42/29/2 64/53/2 63/30/2
f 46/40/2 71/54/2 70/49/2
f 37/46/2 67/56/2 38/47/2
f 64/53/2 40/43/2 65/168/2
f 48/34/2 71/54/2 47/35/2
f 37/46/2 69/58/2 68/55/2
f 40/43/2 66/50/2 65/168/2
f 26/59/3 62/61/3 63/69/3
f 24/62/4 50/64/4 61/169/4
f 5/65/5 38/67/5 39/170/5
f 27/68/6 63/69/6 64/171/6
f 10/70/7 59/72/7 47/172/7
f 28/73/8 64/75/8 65/83/8
f 23/76/9 48/78/9 60/173/9
f 7/79/3 45/81/3 37/174/3
f 29/82/10 65/83/10 66/88/10
f 8/84/11 57/86/11 45/175/11
f 30/87/12 66/88/12 67/176/12
f 21/89/13 46/91/13 58/177/13
f 9/90/8 47/93/8 46/91/8
f 31/94/4 67/96/4 68/100/4
f 6/66/14 55/98/14 38/67/14
f 32/99/15 68/100/15 69/108/15
f 19/101/16 37/103/16 56/178/16
f 11/104/12 49/106/12 48/179/12
f 33/107/17 69/108/17 70/180/17
f 4/109/18 53/111/18 40/181/18
f 34/112/19 70/114/19 71/122/19
f 17/115/20 39/117/20 54/182/20
f 14/118/17 52/120/17 51/183/17
f 35/121/21 71/122/21 72/130/21
f 2/123/22 51/125/22 42/184/22
f 16/126/21 54/128/21 53/185/21
f 36/129/5 72/130/5 73/186/5
f 1/131/15 42/133/15 44/187/15
f 15/134/23 41/136/23 52/188/23
f 18/137/24 56/139/24 55/189/24
f 25/60/24 73/141/24 62/61/24
f 12/105/25 61/143/25 49/106/25
f 20/144/6 58/146/6 57/190/6
f 3/135/19 40/148/19 41/136/19
f 13/149/26 44/151/26 50/191/26
f 22/152/10 60/154/10 59/192/10
l 74 43
