# Blender v2.78 (sub 0) OBJ File: 'puu.blend'
# www.blender.org
mtllib puu.mtl
o Cylinder
v -0.001871 -1.082314 -1.008598
v 0.189524 -1.069767 -0.990295
v 0.373756 -1.057837 -0.934268
v 0.543745 -1.046982 -0.842668
v 0.692958 -1.037620 -0.719016
v 0.815662 -1.030109 -0.568063
v 0.907140 -1.024739 -0.395612
v 0.963878 -1.021716 -0.208288
v 0.983694 -1.021157 -0.013292
v 0.965828 -1.023082 0.181885
v 0.910966 -1.027418 0.369740
v 0.821216 -1.033997 0.543056
v 0.700027 -1.042569 0.695171
v 0.552057 -1.052802 0.820240
v 0.382992 -1.064303 0.913457
v 0.199329 -1.076632 0.971239
v 0.008126 -1.089313 0.991365
v -0.183270 -1.101859 0.973063
v -0.367501 -1.113789 0.917035
v -0.537490 -1.124644 0.825435
v -0.686704 -1.134007 0.701783
v -0.809407 -1.141518 0.550830
v -0.900885 -1.146888 0.378378
v -0.957623 -1.149910 0.191055
v -0.977439 -1.150470 -0.003942
v -0.959573 -1.148545 -0.199119
v -0.904710 -1.144209 -0.386974
v -0.814960 -1.137629 -0.560290
v -0.693771 -1.129058 -0.712405
v -0.545801 -1.118825 -0.837474
v -0.376736 -1.107323 -0.930690
v -0.193072 -1.094995 -0.988472
v 0.343486 9.298901 -0.030168
v -2.251840 7.782607 -1.755386
v 1.015000 7.390467 -2.844095
v 3.051362 7.135967 -0.051273
v 1.043030 7.370844 2.763479
v -2.234517 7.770479 1.710254
v -1.147947 4.682489 -2.842760
v 2.129598 4.282854 -1.789534
v 2.146922 4.270726 1.676106
v -1.119917 4.662866 2.764814
v -3.156279 4.917367 -0.028007
v 0.807704 8.751657 -1.682477
v -1.112481 8.982151 -1.042556
v -0.717786 7.860402 -2.696544
v -2.627792 8.083760 -0.019568
v -1.102299 8.975022 0.994482
v 2.004649 8.602067 -0.040910
v 2.399364 7.480319 -1.694888
v 0.824180 8.740124 1.613546
v 2.415840 7.468785 1.601147
v -0.691128 7.841739 2.636550
v -3.169608 6.406744 -1.041289
v -3.159426 6.399616 0.995756
v -0.068934 6.038200 -3.335696
v -1.989144 6.268695 -2.695776
v 3.054508 5.653716 -1.075036
v 1.857569 5.803298 -2.716632
v 1.884227 5.784636 2.616495
v 3.064690 5.646587 0.962009
v -1.962486 6.250032 2.637352
v -0.035983 6.015131 3.256414
v -2.520757 4.584547 -1.680428
v 0.586211 4.211593 -2.715831
v 2.522875 3.969572 -0.059712
v 0.612869 4.192930 2.617263
v -2.504282 4.573013 1.615607
v -0.929097 3.313207 -1.692827
v -2.109565 3.451265 -0.038370
v 0.997382 3.078309 -1.073762
v 1.007564 3.071181 0.963276
v -0.912621 3.301672 1.603197
v 0.298457 3.013495 -0.851630
v 0.476920 3.057373 0.903972
v 0.306159 3.089981 0.997779
v 0.470119 2.980525 -0.760620
v 0.509925 2.969111 -0.728294
v 0.626629 3.014461 0.778087
v 0.667508 2.997200 0.726822
v 0.748586 3.015563 0.626039
v 0.620038 2.992996 -0.636640
v 0.838558 3.036220 0.453177
v 0.743032 3.019451 -0.485080
v 0.893560 3.049225 0.265602
v 0.834733 3.038898 -0.312175
v 0.891610 3.050591 -0.124572
v 0.911474 3.054077 0.070520
v -0.264232 3.115708 1.057641
v -0.071685 3.119718 1.076115
v -0.080106 3.043614 -0.925521
v 0.120915 3.111031 1.055903
v 0.112666 3.034798 -0.907311
v -0.449316 3.099154 1.001194
v -0.456944 3.022919 -0.848183
v -0.272442 3.039603 -0.905557
v -0.619819 3.070696 0.908945
v -0.626514 2.994201 -0.755602
v -0.649367 2.988039 -0.736301
v -0.898219 3.036690 -0.477664
v -0.775893 3.018262 -0.630106
v -0.699055 3.049910 0.843040
v -0.769891 3.067154 0.785150
v -0.988556 3.037129 -0.304365
v -0.985812 3.088376 0.462053
v -0.893742 3.086743 0.634524
v -1.043426 3.019562 -0.116865
v -1.049761 3.006692 -0.045223
v -1.061799 3.038207 0.078685
v -1.042558 3.071987 0.274370
vt 0.4458 0.2045
vt 0.5672 0.2411
vt 0.4504 0.3258
vt 0.6603 0.2641
vt 0.6479 0.1391
vt 0.3329 0.2411
vt 0.3771 0.1041
vt 0.5218 0.1041
vt 0.5631 0.6880
vt 0.4376 0.7065
vt 0.4922 0.5946
vt 0.9139 0.4749
vt 0.9907 0.5660
vt 0.8597 0.5899
vt 0.9057 0.1089
vt 0.9946 0.0681
vt 0.9832 0.2040
vt 0.6646 0.1089
vt 0.7774 0.0973
vt 0.7073 0.2221
vt 0.3286 0.1586
vt 0.2810 0.2745
vt 0.2122 0.1510
vt 0.6334 0.5825
vt 0.7858 0.4657
vt 0.8489 0.2221
vt 0.2012 0.3688
vt 0.0763 0.3704
vt 0.1373 0.2745
vt 0.2723 0.0470
vt 0.6660 0.4661
vt 0.5527 0.4641
vt 0.5958 0.3650
vt 0.2029 0.6957
vt 0.0785 0.7001
vt 0.1373 0.5990
vt 0.3284 0.4842
vt 0.2813 0.5990
vt 0.2111 0.4747
vt 0.0842 0.1586
vt 0.0075 0.2468
vt 0.0021 0.1062
vt 0.4258 0.4866
vt 0.3337 0.4537
vt 0.4547 0.3771
vt 0.0021 0.4371
vt 0.0892 0.4318
vt 0.0777 0.4393
vt 0.0623 0.0021
vt 0.1286 0.0470
vt 0.1275 0.3746
vt 0.1638 0.4401
vt 0.1535 0.4325
vt 0.2715 0.3746
vt 0.1730 0.5259
vt 0.0082 0.5758
vt 0.0910 0.5589
vt 0.7165 0.5899
vt 0.7959 0.6863
vt 0.6896 0.6903
vt 0.0478 0.4990
vt 0.3569 0.5881
vt 0.7864 0.3212
vt 0.6839 0.3288
vt 0.9131 0.3288
vt 0.3115 0.7001
vt 0.6703 0.4749
vt 0.7280 0.3650
vt 0.8712 0.3650
vt 0.9214 0.6903
vt 0.6660 0.6870
vt 0.3329 0.6770
vt 0.4578 0.0021
vt 0.5832 0.0310
vt 0.3088 0.3704
vt 0.7257 0.0021
vt 0.8674 0.0021
vt 0.3423 0.3608
vt 0.9979 0.4270
vt 0.5765 0.3608
vt 0.1072 0.4250
vt 0.1014 0.4264
vt 0.0584 0.4596
vt 0.0540 0.4671
vt 0.0673 0.4487
vt 0.1812 0.4769
vt 0.1811 0.4727
vt 0.1778 0.4605
vt 0.1146 0.4239
vt 0.1284 0.4243
vt 0.1720 0.4495
vt 0.1416 0.4272
vt 0.1191 0.5603
vt 0.1293 0.5587
vt 0.1425 0.5538
vt 0.1827 0.4860
vt 0.1821 0.4998
vt 0.1544 0.5466
vt 0.1647 0.5371
vt 0.1789 0.5133
vt 0.0519 0.5225
vt 0.0527 0.5245
vt 0.0598 0.5362
vt 0.1159 0.5611
vt 0.1034 0.5614
vt 0.0688 0.5460
vt 0.0794 0.5537
vt 0.0491 0.5122
vt 0.0520 0.4719
vt 0.0488 0.4854
vt 0.0788 0.7060
vt 0.0653 0.9971
vt 0.0655 0.7068
vt 0.0514 0.9955
vt 0.0517 0.7075
vt 0.0377 0.9930
vt 0.0380 0.7081
vt 0.0342 0.9921
vt 0.0246 0.9937
vt 0.0130 0.7089
vt 0.0250 0.7085
vt 0.0126 0.9953
vt 0.0026 0.7090
vt 0.9803 0.9819
vt 0.9693 0.6950
vt 0.9803 0.6953
vt 0.9693 0.9822
vt 0.9568 0.6948
vt 0.9568 0.9822
vt 0.9434 0.6946
vt 0.9294 0.9811
vt 0.9294 0.6945
vt 0.9155 0.9802
vt 0.9155 0.6945
vt 0.9067 0.9793
vt 0.9022 0.9808
vt 0.8900 0.6949
vt 0.9022 0.6947
vt 0.8900 0.9848
vt 0.8794 0.6951
vt 0.7755 0.6968
vt 0.7873 0.9915
vt 0.7760 0.9906
vt 0.7869 0.6952
vt 0.8000 0.9923
vt 0.8132 0.6947
vt 0.8134 0.9930
vt 0.8270 0.6957
vt 0.8272 0.9937
vt 0.8406 0.6975
vt 0.8408 0.9942
vt 0.8475 0.6988
vt 0.8535 0.6975
vt 0.8652 0.9949
vt 0.8536 0.9946
vt 0.8751 0.6955
vt 0.8751 0.9951
vt 0.7712 0.6945
vt 0.7602 0.9927
vt 0.7602 0.6948
vt 0.7477 0.9906
vt 0.7477 0.6951
vt 0.7392 0.9883
vt 0.7342 0.9893
vt 0.7203 0.6953
vt 0.7342 0.6953
vt 0.7064 0.9897
vt 0.7064 0.6953
vt 0.6931 0.9877
vt 0.6931 0.6952
vt 0.6828 0.9848
vt 0.6809 0.9851
vt 0.6703 0.6947
vt 0.6809 0.6950
vt 0.1021 0.9965
vt 0.0912 0.7052
vt 0.1021 0.7044
vt 0.0911 0.9977
vt 0.2381 0.7417
vt 0.1091 0.7540
vt 0.1143 0.7412
vt 0.0786 0.9979
vt 0.0021 0.9965
vt 0.9434 0.9818
vt 0.8794 0.9882
vt 0.7996 0.6945
vt 0.8651 0.6958
vt 0.7712 0.9933
vt 0.7203 0.9903
vt 0.6703 0.9860
vt 0.1966 0.8426
vt 0.1831 0.8452
vt 0.1693 0.8452
vt 0.1559 0.8424
vt 0.1431 0.8371
vt 0.1317 0.8293
vt 0.2305 0.8199
vt 0.1220 0.8195
vt 0.1143 0.8079
vt 0.2381 0.8084
vt 0.1091 0.7951
vt 0.1064 0.7815
vt 0.2461 0.7681
vt 0.1064 0.7676
vt 0.2434 0.7545
vt 0.1220 0.7297
vt 0.2207 0.7203
vt 0.1317 0.7199
vt 0.1431 0.7123
vt 0.2093 0.7125
vt 0.1559 0.7070
vt 0.1693 0.7044
vt 0.1831 0.7044
vt 0.1966 0.7072
vt 0.2305 0.7301
vt 0.2461 0.7820
vt 0.2434 0.7956
vt 0.2207 0.8296
vt 0.2093 0.8373
vn -0.0101 -0.9501 0.3118
vn 0.6170 -0.7419 0.2624
vn -0.3785 -0.9052 0.1935
vn -0.3804 -0.9038 -0.1960
vn -0.0133 -0.9479 -0.3183
vn 0.8601 -0.4376 0.2622
vn -0.0104 -0.3343 0.9424
vn -0.9214 -0.2222 0.3189
vn -0.6139 -0.2564 -0.7466
vn 0.4871 -0.3895 -0.7817
vn 0.7846 -0.2232 0.5784
vn -0.3147 -0.0912 0.9448
vn -1.0000 -0.0056 0.0050
vn -0.3242 -0.0846 -0.9422
vn 0.7788 -0.2191 -0.5878
vn 0.4886 0.6056 0.6281
vn -0.3855 0.7115 0.5875
vn -0.6170 0.7419 -0.2624
vn 0.1140 0.6549 -0.7471
vn 0.7973 0.5706 -0.1967
vn 0.3785 0.9052 -0.1935
vn 0.5812 0.7312 -0.3572
vn 0.4823 0.6100 -0.6287
vn 0.0101 0.9501 -0.3118
vn -0.0937 0.8135 -0.5740
vn -0.3913 0.7156 -0.5787
vn -0.2156 0.9765 0.0045
vn -0.5072 0.8618 0.0056
vn -0.6143 0.7401 0.2737
vn 0.0133 0.9479 0.3183
vn -0.0879 0.8094 0.5806
vn 0.1215 0.6497 0.7505
vn 0.3804 0.9038 0.1960
vn 0.5848 0.7287 0.3565
vn 0.7992 0.5693 0.1927
vn 0.9214 0.2222 -0.3189
vn 0.8085 0.0928 -0.5811
vn 0.6064 0.2616 -0.7509
vn 0.0104 0.3343 -0.9424
vn -0.2835 0.2260 -0.9320
vn -0.4949 0.3949 -0.7740
vn -0.8601 0.4376 -0.2622
vn -0.9526 0.3042 0.0058
vn -0.8574 0.4357 0.2738
vn -0.4871 0.3895 0.7817
vn -0.2741 0.2194 0.9363
vn 0.0198 0.3277 0.9446
vn 0.6139 0.2564 0.7466
vn 0.8143 0.0888 0.5736
vn 0.9245 0.2200 0.3112
vn 0.3147 0.0912 -0.9448
vn 0.2741 -0.2194 -0.9363
vn -0.0198 -0.3277 -0.9446
vn -0.7846 0.2232 -0.5784
vn -0.8143 -0.0888 -0.5736
vn -0.9245 -0.2200 -0.3112
vn -0.7788 0.2191 0.5878
vn -0.8085 -0.0928 0.5811
vn -0.6064 -0.2616 0.7509
vn 0.3242 0.0846 0.9422
vn 0.2835 -0.2260 0.9320
vn 0.4949 -0.3949 0.7740
vn 1.0000 0.0056 -0.0050
vn 0.9526 -0.3042 -0.0058
vn 0.8574 -0.4357 -0.2738
vn 0.3855 -0.7115 -0.5875
vn 0.0879 -0.8094 -0.5806
vn -0.1215 -0.6497 -0.7505
vn -0.4886 -0.6056 -0.6281
vn -0.5848 -0.7287 -0.3565
vn -0.7992 -0.5693 -0.1927
vn -0.7973 -0.5706 0.1967
vn -0.5812 -0.7312 0.3572
vn -0.4823 -0.6100 0.6287
vn 0.6143 -0.7401 -0.2737
vn 0.5072 -0.8618 -0.0056
vn 0.2156 -0.9765 -0.0045
vn -0.1140 -0.6549 0.7471
vn 0.0937 -0.8135 0.5740
vn 0.3913 -0.7156 0.5787
vn 0.0133 0.9479 0.3184
vn 0.0937 0.0219 -0.9954
vn 0.2894 0.0248 -0.9569
vn 0.4729 0.0266 -0.8807
vn 0.6349 0.0273 -0.7721
vn 0.7750 0.0269 -0.6313
vn 0.8828 0.0254 -0.4691
vn 0.9567 0.0230 -0.2901
vn 0.9947 0.0197 -0.1011
vn 0.9957 0.0158 0.0913
vn 0.9598 0.0113 0.2806
vn 0.8879 0.0065 0.4600
vn 0.7791 0.0011 0.6269
vn 0.6457 -0.0039 0.7636
vn 0.4833 -0.0090 0.8754
vn 0.3009 -0.0138 0.9536
vn 0.1059 -0.0181 0.9942
vn -0.0938 -0.0218 0.9954
vn -0.2894 -0.0247 0.9569
vn -0.4729 -0.0268 0.8807
vn -0.6349 -0.0278 0.7721
vn -0.7750 -0.0279 0.6314
vn -0.8827 -0.0270 0.4691
vn -0.9567 -0.0250 0.2902
vn -0.9946 -0.0220 0.1011
vn -0.9956 -0.0182 -0.0921
vn -0.9597 -0.0138 -0.2806
vn -0.8878 -0.0086 -0.4601
vn -0.7820 -0.0031 -0.6232
vn -0.6425 0.0025 -0.7663
vn -0.4832 0.0079 -0.8755
vn -0.3009 0.0132 -0.9536
vn -0.1058 0.0179 -0.9942
vn 0.0658 -0.9978 -0.0038
vn 0.0950 0.0218 -0.9952
vn 0.2896 0.0248 -0.9568
vn 0.4722 0.0266 -0.8811
vn 0.6368 0.0273 -0.7705
vn 0.6360 0.0273 -0.7712
vn 0.7739 0.0268 -0.6327
vn 0.8820 0.0254 -0.4706
vn 0.9563 0.0230 -0.2914
vn 0.9946 0.0197 -0.1016
vn 0.9957 0.0158 0.0918
vn 0.9593 0.0112 0.2821
vn 0.8867 0.0063 0.4623
vn 0.7821 0.0014 0.6232
vn 0.6429 -0.0038 0.7659
vn 0.4801 -0.0089 0.8771
vn 0.2979 -0.0137 0.9545
vn 0.1035 -0.0181 0.9945
vn -0.0950 -0.0218 0.9952
vn -0.2896 -0.0247 0.9568
vn -0.4722 -0.0268 0.8811
vn -0.6368 -0.0279 0.7705
vn -0.6366 -0.0279 0.7707
vn -0.7739 -0.0280 0.6327
vn -0.8820 -0.0269 0.4706
vn -0.9563 -0.0249 0.2913
vn -0.9946 -0.0220 0.1016
vn -0.9957 -0.0182 -0.0913
vn -0.9593 -0.0137 -0.2820
vn -0.8867 -0.0086 -0.4622
vn -0.7801 -0.0032 -0.6256
vn -0.6456 0.0025 -0.7636
vn -0.4803 0.0082 -0.8771
vn -0.2980 0.0134 -0.9545
vn -0.1036 0.0181 -0.9945
usemtl Material.001
s off
f 33/1/1 45/2/1 44/3/1
f 34/4/2 45/2/2 47/5/2
f 33/1/3 44/3/3 49/6/3
f 33/1/4 49/6/4 51/7/4
f 33/1/5 51/7/5 48/8/5
f 34/9/6 47/10/6 54/11/6
f 35/12/7 46/13/7 56/14/7
f 36/15/8 50/16/8 58/17/8
f 37/18/9 52/19/9 60/20/9
f 38/21/10 53/22/10 62/23/10
f 34/9/11 54/11/11 57/24/11
f 35/12/12 56/14/12 59/25/12
f 36/15/13 58/17/13 61/26/13
f 37/27/14 60/28/14 63/29/14
f 38/21/15 62/23/15 55/30/15
f 39/31/16 64/32/16 69/33/16
f 40/34/17 65/35/17 71/36/17
f 41/37/18 66/38/18 72/39/18
f 42/40/19 67/41/19 73/42/19
f 43/43/20 68/44/20 70/45/20
f 70/46/21 106/47/21 105/48/21
f 70/49/22 68/50/22 73/42/22
f 68/50/23 42/40/23 73/42/23
f 73/51/24 92/52/24 90/53/24
f 73/51/25 67/54/25 72/39/25
f 67/54/26 41/37/26 72/39/26
f 72/39/27 71/36/27 88/55/27
f 72/39/28 66/38/28 71/36/28
f 66/38/29 40/34/29 71/36/29
f 69/56/30 93/57/30 71/36/30
f 71/36/31 65/35/31 69/56/31
f 65/58/32 39/59/32 69/60/32
f 70/46/33 100/61/33 69/56/33
f 69/33/34 64/32/34 70/45/34
f 64/32/35 43/43/35 70/45/35
f 55/62/36 68/44/36 43/43/36
f 55/30/37 62/23/37 68/50/37
f 62/23/38 42/40/38 68/50/38
f 63/29/39 67/41/39 42/40/39
f 63/29/40 60/28/40 67/41/40
f 60/20/41 41/63/41 67/64/41
f 61/26/42 66/65/42 41/63/42
f 61/26/43 58/17/43 66/65/43
f 58/66/44 40/34/44 66/38/44
f 59/25/45 65/58/45 40/67/45
f 59/25/46 56/14/46 65/58/46
f 56/14/47 39/59/47 65/58/47
f 57/24/48 64/32/48 39/31/48
f 57/24/49 54/11/49 64/32/49
f 54/11/50 43/43/50 64/32/50
f 62/23/51 63/29/51 42/40/51
f 62/23/52 53/22/52 63/29/52
f 53/22/53 37/27/53 63/29/53
f 60/20/54 61/26/54 41/63/54
f 60/20/55 52/19/55 61/26/55
f 52/19/56 36/15/56 61/26/56
f 58/68/57 59/25/57 40/67/57
f 58/68/58 50/69/58 59/25/58
f 50/69/59 35/12/59 59/25/59
f 56/14/60 57/70/60 39/59/60
f 56/14/61 46/13/61 57/70/61
f 46/71/62 34/9/62 57/24/62
f 54/11/63 55/62/63 43/43/63
f 54/11/64 47/10/64 55/62/64
f 47/10/65 38/72/65 55/62/65
f 48/8/66 53/73/66 38/74/66
f 48/8/67 51/7/67 53/73/67
f 51/75/68 37/27/68 53/22/68
f 51/76/69 52/19/69 37/18/69
f 51/76/70 49/77/70 52/19/70
f 49/77/71 36/15/71 52/19/71
f 49/77/72 50/16/72 36/15/72
f 49/6/73 44/3/73 50/78/73
f 44/79/74 35/12/74 50/69/74
f 47/5/75 48/8/75 38/74/75
f 47/5/76 45/2/76 48/8/76
f 45/2/77 33/1/77 48/8/77
f 44/79/78 46/13/78 35/12/78
f 44/3/79 45/2/79 46/80/79
f 45/2/80 34/4/80 46/80/80
f 70/46/21 73/51/21 106/47/21
f 73/51/21 102/81/21 103/82/21
f 109/83/21 108/84/21 70/46/21
f 110/85/21 109/83/21 70/46/21
f 73/51/21 103/82/21 106/47/21
f 105/48/21 110/85/21 70/46/21
f 72/39/24 80/86/24 79/87/24
f 72/39/24 79/87/24 75/88/24
f 97/89/24 102/81/24 73/51/24
f 94/90/24 97/89/24 73/51/24
f 72/39/24 75/88/24 76/91/24
f 72/39/24 76/91/24 92/52/24
f 89/92/24 94/90/24 73/51/24
f 72/39/24 92/52/24 73/51/24
f 90/53/24 89/92/24 73/51/24
f 71/36/27 78/93/27 82/94/27
f 71/36/27 82/94/27 84/95/27
f 81/96/27 80/86/27 72/39/27
f 83/97/27 81/96/27 72/39/27
f 71/36/27 84/95/27 86/98/27
f 71/36/27 86/98/27 87/99/27
f 85/100/27 83/97/27 72/39/27
f 71/36/27 87/99/27 88/55/27
f 88/55/27 85/100/27 72/39/27
f 69/56/30 99/101/30 98/102/30
f 69/56/30 98/102/30 95/103/30
f 77/104/30 78/93/30 71/36/30
f 74/105/30 77/104/30 71/36/30
f 69/56/30 95/103/30 96/106/30
f 69/56/30 96/106/30 91/107/30
f 74/105/81 71/36/81 93/57/81
f 69/56/30 91/107/30 93/57/30
f 99/101/33 69/56/33 101/108/33
f 70/46/33 108/84/33 107/109/33
f 70/46/33 107/109/33 104/110/33
f 101/108/33 69/56/33 100/61/33
f 70/46/33 104/110/33 100/61/33
usemtl Material.003
f 1/111/82 93/112/82 2/113/82
f 2/113/83 74/114/83 3/115/83
f 3/115/84 77/116/84 4/117/84
f 77/116/85 78/118/85 4/117/85
f 82/119/86 6/120/86 5/121/86
f 84/122/87 7/123/87 6/120/87
f 86/124/88 8/125/88 7/126/88
f 87/127/89 9/128/89 8/125/89
f 88/129/90 10/130/90 9/128/90
f 10/130/91 83/131/91 11/132/91
f 11/132/92 81/133/92 12/134/92
f 81/133/93 80/135/93 12/134/93
f 79/136/94 14/137/94 13/138/94
f 75/139/95 15/140/95 14/137/95
f 76/141/96 16/142/96 15/143/96
f 92/144/97 17/145/97 16/142/97
f 17/145/98 89/146/98 18/147/98
f 18/147/99 94/148/99 19/149/99
f 19/149/100 97/150/100 20/151/100
f 97/150/101 102/152/101 20/151/101
f 103/153/102 22/154/102 21/155/102
f 22/154/103 105/156/103 23/157/103
f 23/158/104 110/159/104 24/160/104
f 24/160/105 109/161/105 25/162/105
f 109/161/106 108/163/106 25/162/106
f 107/164/107 27/165/107 26/166/107
f 27/165/108 100/167/108 28/168/108
f 28/168/109 101/169/109 29/170/109
f 101/169/110 99/171/110 29/170/110
f 98/172/111 31/173/111 30/174/111
f 95/175/112 32/176/112 31/177/112
f 96/178/113 1/111/113 32/176/113
f 23/179/114 11/180/114 12/181/114
f 1/111/115 91/182/115 93/112/115
f 2/113/116 93/112/116 74/114/116
f 3/115/117 74/114/117 77/116/117
f 5/121/118 4/117/118 78/118/118
f 78/118/119 82/119/119 5/121/119
f 82/119/120 84/122/120 6/120/120
f 84/122/121 86/183/121 7/123/121
f 86/124/122 87/127/122 8/125/122
f 87/127/123 88/129/123 9/128/123
f 88/129/124 85/184/124 10/130/124
f 10/130/125 85/184/125 83/131/125
f 11/132/126 83/131/126 81/133/126
f 13/138/127 12/134/127 80/135/127
f 80/135/127 79/136/127 13/138/127
f 79/136/128 75/139/128 14/137/128
f 75/139/129 76/185/129 15/140/129
f 76/141/130 92/144/130 16/142/130
f 92/144/131 90/186/131 17/145/131
f 17/145/132 90/186/132 89/146/132
f 18/147/133 89/146/133 94/148/133
f 19/149/134 94/148/134 97/150/134
f 21/155/135 20/151/135 102/152/135
f 102/152/136 103/153/136 21/155/136
f 103/153/137 106/187/137 22/154/137
f 22/154/138 106/187/138 105/156/138
f 23/158/139 105/188/139 110/159/139
f 24/160/140 110/159/140 109/161/140
f 26/166/141 25/162/141 108/163/141
f 108/163/141 107/164/141 26/166/141
f 107/164/142 104/189/142 27/165/142
f 27/165/143 104/189/143 100/167/143
f 28/168/144 100/167/144 101/169/144
f 30/174/145 29/170/145 99/171/145
f 99/171/145 98/172/145 30/174/145
f 98/172/146 95/190/146 31/173/146
f 95/175/147 96/178/147 32/176/147
f 96/178/148 91/182/148 1/111/148
f 32/191/114 1/192/114 2/193/114
f 2/193/114 3/194/114 32/191/114
f 4/195/114 5/196/114 29/197/114
f 6/198/114 7/199/114 28/200/114
f 8/201/114 9/202/114 25/203/114
f 10/204/114 11/180/114 24/205/114
f 12/181/114 13/206/114 21/207/114
f 14/208/114 15/209/114 20/210/114
f 16/211/114 17/212/114 18/213/114
f 18/213/114 19/214/114 16/211/114
f 20/210/114 21/207/114 13/206/114
f 22/215/114 23/179/114 12/181/114
f 24/205/114 25/203/114 9/202/114
f 26/216/114 27/217/114 8/201/114
f 28/200/114 29/197/114 5/196/114
f 30/218/114 31/219/114 4/195/114
f 32/191/114 3/194/114 31/219/114
f 5/196/114 6/198/114 28/200/114
f 9/202/114 10/204/114 24/205/114
f 13/206/114 14/208/114 20/210/114
f 16/211/114 19/214/114 15/209/114
f 21/207/114 22/215/114 12/181/114
f 25/203/114 26/216/114 8/201/114
f 29/197/114 30/218/114 4/195/114
f 3/194/114 4/195/114 31/219/114
f 11/180/114 23/179/114 24/205/114
f 19/214/114 20/210/114 15/209/114
f 27/217/114 7/199/114 8/201/114
f 7/199/114 27/217/114 28/200/114
